<svg height="512" viewBox="0 0 64 64" width="512" xmlns="http://www.w3.org/2000/svg"><g id="Filled_outline" data-name="Filled outline"><path d="m53 37h1v-10l-22 8-22-8v10h1a2 2 0 0 1 2 2v4a2 2 0 0 1 -2 2h-1v8l22 8 22-8v-8h-1a2 2 0 0 1 -2-2v-4a2 2 0 0 1 2-2z" fill="#8ec13f"/><path d="m41 17v12.316l4-2.526v-10.79a13.237 13.237 0 0 0 -13-13 12.691 12.691 0 0 0 -13 13v10.789l4 2.527v-12.316a6.45 6.45 0 0 0 5-3c2 2 5 5 13 3z" fill="#394d5c"/><path d="m41 17c-8 2-11-1-13-3a6.45 6.45 0 0 1 -5 3v12.316l9 5.684 9-5.684z" fill="#ffd782"/><path d="m23 28a4 4 0 0 1 0-8z" fill="#f9bb4b"/><path d="m41 20a4 4 0 0 1 0 8z" fill="#f9bb4b"/><rect fill="#ffd782" height="8" rx="2" width="6" x="7" y="37"/><rect fill="#ffd782" height="8" rx="2" transform="matrix(-1 0 0 -1 108 82)" width="6" x="51" y="37"/><path d="m32 35-19-12v5.091z" fill="#edeccc"/><path d="m51 23-19 12 19-6.909z" fill="#edeccc"/><path d="m28 33.545v26l4 1.455 4-1.455v-26l-4 1.455z" fill="#c8d952"/><path d="m27 22h2v2h-2z"/><path d="m31 25h2v4h-2z"/><path d="m35 22h2v2h-2z"/><path d="m9 46v7a1 1 0 0 0 .658.94l22.342 8.124 22.342-8.124a1 1 0 0 0 .658-.94v-7a3 3 0 0 0 3-3v-4a3 3 0 0 0 -3-3v-9a1 1 0 0 0 -1.342-.94l-1.658.6v-3.66a1 1 0 0 0 -1.534-.846l-4.466 2.821v-8.975a14.187 14.187 0 0 0 -14-14 13.693 13.693 0 0 0 -14 14v8.975l-4.466-2.821a1 1 0 0 0 -1.534.846v3.663l-1.658-.6a1 1 0 0 0 -1.342.937v9a3 3 0 0 0 -3 3v4a3 3 0 0 0 3 3zm26 12.845-3 1.091-3-1.091v-23.872l3 1.091 3-1.091zm-11-30.081v-10.888a7.508 7.508 0 0 0 4.1-2.376c2 1.86 5.246 4.077 11.9 2.747v10.517l-8 5.053zm31 9.236a1 1 0 0 1 1 1v4a1 1 0 0 1 -1 1h-2a1 1 0 0 1 -1-1v-4a1 1 0 0 1 1-1zm-2-9.572v7.572a3 3 0 0 0 -3 3v4a3 3 0 0 0 3 3v6.3l-16 5.818v-23.872zm-3-3.614v2.576l-9.614 3.5zm-8 2.015v-5.658a3 3 0 0 1 0 5.658zm-22-10.829a11.737 11.737 0 0 1 12-12 12.313 12.313 0 0 1 12 12v4.026a4.954 4.954 0 0 0 -2-.925v-2.101a1 1 0 0 0 -1.243-.971c-7.448 1.866-10.109-.793-12.05-2.733a1 1 0 0 0 -1.539.152 5.445 5.445 0 0 1 -4.168 2.552 1 1 0 0 0 -1 1v2.1a4.954 4.954 0 0 0 -2 .925zm2 5.171v5.658a3 3 0 0 1 0-5.658zm-8 3.643 9.614 6.072-9.614-3.496zm-3 3.614 16 5.818v23.872l-16-5.818v-6.3a3 3 0 0 0 3-3v-4a3 3 0 0 0 -3-3zm-3 10.572a1 1 0 0 1 1-1h2a1 1 0 0 1 1 1v4a1 1 0 0 1 -1 1h-2a1 1 0 0 1 -1-1z"/><path d="m17.5 28.148h2v11.705h-2z" transform="matrix(.342 -.94 .94 .342 -19.775 39.767)"/></g></svg>